[CENTER][IMG]http://img213.imageshack.us/img213/9809/cbtvbanner.gif[/IMG]


[FONT=Century Gothic][SIZE=3][I][B][U]Bigg Boss Season 5 *Day 5* HQ 07 Oct 2011 XviD MP3 Team BollyTv[/U][/B][/I][/SIZE][/FONT]

[CODE]Format                           : AVI
Format/Info                      : Audio Video Interleave
File size                        : 426 MiB
Duration                         : 52mn 54s
Overall bit rate                 : 1 200 Kbps

Video
ID                               : 0
Format                           : MPEG-4 Visual
Format profile                   : Advanced Simple@L5
Format settings, BVOP            : No
Format settings, QPel            : No
Format settings, GMC             : No warppoints
Format settings, Matrix          : Default (MPEG)
Codec ID                         : XVID
Codec ID/Hint                    : XviD
Duration                         : 52mn 54s
Bit rate                         : 1 497 Kbps
Width                            : 512 pixels
Height                           : 392 pixels
Display aspect ratio             : 4:3
Frame rate                       : 25.000 fps
Color space                      : YUV
Chroma subsampling               : 4:2:0
Bit depth                        : 8 bits
Scan type                        : Progressive
Bits/(Pixel*Frame)               : 0.305
Stream size                      : 426 MiB (92%)
Writing library                  : XviD 1.2.1 (UTC 2008-12-04)

Audio
ID                               : 1
Format                           : MPEG Audio
Format version                   : Version 1
Format profile                   : Layer 3
Codec ID                         : 55
Codec ID/Hint                    : MP3
Duration                         : 57mn 19s
Bit rate mode                    : Constant
Bit rate                         : 128 Kbps
Channel(s)                       : 2 channels
Sampling rate                    : 44.1 KHz
Stream size                      : 52.5 MiB (8%)
Alignment                        : Split accross interleaves
Interleave, duration             : 80 ms (2.00 video frames)

[/CODE]
[IMG]http://freeimgsharing.com/images/30380499574598030869.jpg[/IMG]
[IMG]http://freeimgsharing.com/images/18813059159055281822.jpg[/IMG]
[IMG]http://freeimgsharing.com/images/20460449836167689957.jpg[/IMG]
[IMG]http://freeimgsharing.com/images/27758981973474675511.jpg[/IMG]
[IMG]http://freeimgsharing.com/images/96914006887200905762.jpg[/IMG]
[IMG]http://freeimgsharing.com/images/93315462972815139247.jpg[/IMG]
[/CENTER]
